/* XPM */
static char *b64d0ddc3f964e66f2d01c201e6a0268jfPBEIl5Lqr7U04Q[] = {
/* columns rows colors chars-per-pixel */
"64 64 94 2 ",
"   c blue",
".  c #0403FF",
"X  c #0404FF",
"o  c #0505FF",
"O  c #0708FF",
"+  c #0808FF",
"@  c #0909FF",
"#  c #0B0BFF",
"$  c #0B0CFF",
"%  c #0E0FFF",
"&  c #1010FF",
"*  c #1314FF",
"=  c #1717FF",
"-  c #1818FF",
";  c #1E1EFF",
":  c #1F1FFF",
">  c #2323FF",
",  c #2424FF",
"<  c #2727FF",
"1  c #2929FF",
"2  c #2B2BFF",
"3  c #2E2FFF",
"4  c #2F30FF",
"5  c #3434FF",
"6  c #3637FF",
"7  c #3838FF",
"8  c #3C3CFF",
"9  c #4141FF",
"0  c #4646FF",
"q  c #4848FF",
"w  c #4A4AFF",
"e  c #4C4CFF",
"r  c #5051FF",
"t  c #5454FF",
"y  c #5757FF",
"u  c #5E5EFF",
"i  c #6161FF",
"p  c #6363FF",
"a  c #6666FF",
"s  c #6767FF",
"d  c #6A6AFF",
"f  c #6D6EFF",
"g  c #7070FF",
"h  c #7373FF",
"j  c #7575FF",
"k  c #7878FF",
"l  c #7A7AFF",
"z  c #7E7EFF",
"x  c #7F7FFF",
"c  c #807FFF",
"v  c #8281FF",
"b  c #8585FF",
"n  c #8888FF",
"m  c #8C8CFF",
"M  c #8E8EFF",
"N  c #9292FF",
"B  c #9696FF",
"V  c #9A9AFF",
"C  c #9D9DFF",
"Z  c #A0A0FF",
"A  c #A3A3FF",
"S  c #A5A6FF",
"D  c #A8A8FF",
"F  c #AEAEFF",
"G  c #AFAFFF",
"H  c #B3B3FF",
"J  c #B4B4FF",
"K  c #B7B7FF",
"L  c #BABAFF",
"P  c #BDBDFF",
"I  c #C3C3FF",
"U  c #C7C7FF",
"Y  c #CACAFF",
"T  c #CDCDFF",
"R  c #CFCFFF",
"E  c #D0CFFF",
"W  c #D0D0FF",
"Q  c #D4D4FF",
"!  c #D9D9FF",
"~  c #DBDBFF",
"^  c #DDDDFF",
"/  c #E0E0FF",
"(  c #E3E3FF",
")  c #E4E4FF",
"_  c #E8E8FF",
"`  c #ECEDFF",
"'  c #EFEFFF",
"]  c #EFF0FF",
"[  c #F2F2FF",
"{  c #F3F3FF",
"}  c #F6F6FF",
"|  c #FBFBFF",
" . c #FCFCFF",
".. c white",
/* pixels */
"                                                                                                                                ",
"                                                                                                                                ",
"                                                                                                                                ",
"                                                                                                                                ",
"                                                                                                                                ",
"                                                                                                                                ",
"                                                      o # & - ; < ; - & # o                                                     ",
"                                              # < 0 p j b C J T ^ T J A n j a w 2 %                                             ",
"                                          O 0 V L Q [ | | | ..........| | | [ ^ P C r #                                         ",
"                                      # 6 M Q | ....................................! B 8 #                                     ",
"                                    3 z T } ..........................................} Q n 7                                   ",
"                                % u L [ ..................................................} U d &                               ",
"                              > n / ..........................................................) B 2                             ",
"                            3 A ' ..............................................................} F 7                           ",
"                          > S } ..................................................................| J 6                         ",
"                        - B [ ......................................................................} A >                       ",
"                      % l _ ..........................................................................' n &                     ",
"                    . t ! ............................................................................../ a o                   ",
"                    2 P ..................................................................................Y 7                   ",
"                  # M [ ..................................................................................} A &                 ",
"                  r ^ ....................................................................................../ p                 ",
"                - S ..........................................................................................H 2               ",
"                r ) ..........................................................................................` a o             ",
"              % C | ..........................................................................................| H -             ",
"              6 ^ ..............................................................................................) 0             ",
"              l [ ..............................................................................................} n o           ",
"            $ F ..................................................................................................I =           ",
"            4 U ..................................................................................................Q 8           ",
"            r ^ ................................................................................................../ p           ",
"            d ' ..................................................................................................} z           ",
"            l | ....................................................................................................M           ",
"            c ......................................................................................................N           ",
"            z ......................................................................................................N           ",
"            z ......................................................................................................N           ",
"            z ......................................................................................................N           ",
"            l | ....................................................................................................n           ",
"            a ' ..................................................................................................} l           ",
"            e ! ................................................................................................../ u           ",
"            2 I ..................................................................................................Q 7           ",
"            o D | ................................................................................................L &           ",
"              h ' ..............................................................................................[ v             ",
"              3 Q ..............................................................................................) 7             ",
"              # N | ............................................................................................S =             ",
"                w ! ..........................................................................................) u               ",
"                = B | ......................................................................................| D ;               ",
"                  0 Q ......................................................................................^ r                 ",
"                  o z ' ..................................................................................} N %                 ",
"                    ; F | ................................................................................P 2                   ",
"                      w T ..............................................................................! t o                   ",
"                      # d / .........................................................................._ l #                     ",
"                        % b _ ......................................................................[ N =                       ",
"                          - N [ ..................................................................} A >                         ",
"                            > M ) ..............................................................' V 2                           ",
"                              & h Q ........................................................| ! v =                             ",
"                                o e D ) | ................................................' H t #                               ",
"                                    > p P ' ..........................................' U f <                                   ",
"                                      o > h I } ..................................| Y z 2 o                                     ",
"                                            6 v A Y _ [ [ } | ......| ..[ [ ) T D b 8                                           ",
"                                              o = 2 9 r d b V L Y L Z b f y 9 4 - O                                             ",
"                                                        . o # % % # # X o                                                       ",
"                                                                                                                                ",
"                                                                                                                                ",
"                                                                                                                                ",
"                                                                                                                                "
};
