/* XPM */
static char *_6754c2cb1ed4258e20d98173f511147mJSoQ6pwHsMFGLXA[] = {
/* columns rows colors chars-per-pixel */
"64 64 121 2 ",
"   c #D00707",
".  c #D40B0B",
"X  c #D61111",
"o  c #DB1515",
"O  c #D51818",
"+  c #DE1919",
"@  c #E21D1D",
"#  c #D62424",
"$  c #D92626",
"%  c #DC2C2C",
"&  c #DF3030",
"*  c #E62222",
"=  c #E92525",
"-  c #ED272B",
";  c #E42B2B",
":  c #ED2A2A",
">  c #F02B2B",
",  c #ED2730",
"<  c #EE2830",
"1  c #EB293E",
"2  c #E33434",
"3  c #EC3333",
"4  c #E73838",
"5  c #EB3C3C",
"6  c #F03232",
"7  c #F03C3C",
"8  c #DF2B5D",
"9  c #E92942",
"0  c #E62A4D",
"q  c #E22B56",
"w  c #E12B59",
"e  c #DC2B62",
"r  c #D62C6E",
"t  c #D92C69",
"y  c #CB2E7D",
"u  c #D32D73",
"i  c #D02D78",
"p  c #EF4242",
"a  c #F04242",
"s  c #5151BC",
"d  c #5C52B8",
"f  c #7F4EAC",
"g  c #6C51AB",
"h  c #7453A5",
"j  c #7C51A0",
"k  c #7C4FBA",
"l  c #6652B1",
"z  c #7450B6",
"x  c #7D51B6",
"c  c #354CCF",
"v  c #3B4ECB",
"b  c #2F4BD6",
"n  c #2549DE",
"m  c #2B4ADA",
"M  c #334CD3",
"N  c #334CDD",
"B  c #3B4CDC",
"V  c #1F48E6",
"C  c #2148E4",
"Z  c #2A4AE1",
"A  c #314BE0",
"S  c #434EC6",
"D  c #5C4ECF",
"F  c #4F52C0",
"G  c #5951C4",
"H  c #5350C8",
"J  c #464ED6",
"K  c #4D4ED6",
"L  c #484ED9",
"P  c #544ED3",
"I  c #5B4ED0",
"U  c #5750D2",
"Y  c #624CCE",
"T  c #6E51C6",
"R  c #6350CB",
"E  c #6952CA",
"W  c #7050C2",
"Q  c #9F3A9F",
"!  c #BE2F8C",
"~  c #A43F8C",
"^  c #B22F94",
"/  c #A63E97",
"(  c #A4339F",
")  c #AA319D",
"_  c #A23B9C",
"`  c #B33096",
"'  c #B93090",
"]  c #B13199",
"[  c #9D35A4",
"{  c #9C3BA4",
"}  c #9734A9",
"|  c #9933A8",
" . c #A132A4",
".. c #C52E85",
"X. c #C12F89",
"o. c #9F438F",
"O. c #844E9F",
"+. c #8F4C99",
"@. c #9E4494",
"#. c #914C95",
"$. c #9B4B93",
"%. c #964698",
"&. c #9C449B",
"*. c #93499C",
"=. c #9C4B9C",
"-. c #83519D",
";. c #8B5098",
":. c #A74487",
">. c #A3448C",
",. c #A24495",
"<. c #A54996",
"1. c #A34399",
"2. c #A14999",
"3. c #8D4DA9",
"4. c #954AA4",
"5. c #994BA3",
"6. c #934BA9",
"7. c #8E51AD",
"8. c #9151AC",
"9. c #864EB3",
"0. c #844FB9",
/* pixels */
"V V V V V V V V V V V V V V V V V V V V V V V V V V V V V V V V V V V V V V V V V V V V V V V V V V V V V V V V V V V V V V V V ",
"V V V V V V V V V V V V V V V V V V V V V V V V V V V V V V V V V V V C V V V V V V V V V V V V V V V V V V V V V V V V V V V V ",
"V V V V V V V V V V V V V V V V V V V V V V V V V V V V V V V V C V V V V C V V V V V V V V V V V V V V V V V V V V V V V V V V ",
"V V V V V V V V V V V V V V V V V V V V V V V V C V V V V C V C n V V V V V C C C V V V V V V V V V V V V V V V V V V V V V V V ",
"V V V V V V V V V V V V V V V V V V V V C C V V C J W 0.4.*.1.1.1.&.4.6.z D N C V V C V V V V V V V V V V V V V V V V V V V V V ",
"V V V V V V V V V V V V V V V V V V V C C n Y 4.1._ | } } | |  .| | | } | [ / =.9.K C V V V V V V V V V V V V V V V V V V V V V ",
"V V V V V V V V V V V V V V V V V C C B 0.,.Q }  .' y 8 0 , , < < > < w e y ^ | } _ =.W C C C C V V V V V V V V V V V V V V V V ",
"V V V V V V V V V V V V V V V V C A 7.1.|  ...q - : - = - = * * * * @ * * = - 1 t ' |  .,.W C C V V V V V V V V V V V V V V V V ",
"V V V V V V V V V V V V V V V V T <.| ) r < - > : : : = = = * * * @ @ @ @ @ o @ @ - 9 y  . .1.K V C V V V V V V V V V V V V V V ",
"V V V V V V V V V V V V V V A 8.Q  .i - > : > : : : = = * * * * * @ * @ @ @ @ o @ o @ = 9 ..} _ x C V C V V V V V V V V V V V V ",
"V V V V V V V V V V V V C P 1. .! 3 : : : : : : = : = = = * * * * @ @ @ @ o o @ o @ o o @ = e ] { 5.A V V V V V V V V V V V V V ",
"V V V V V V V V V V V V Y 1. .i : : : : : > > : : = = = = * * * * * @ @ @ @ @ o o o o o o o * 1 ! { 2.A V V V V V V V V V V V V ",
"V V V V V V V V V C C E  . .w 6 : > > > > : : : : = = = * * * * * @ @ @ @ @ o @ @ o o o o o o o - y | ,.B C C V V V V V V V V V ",
"V V V V V V V V V C I /  .w > > : > : : : : : : = : = = = = * * * @ @ @ @ @ @ o o o o o o X o . o : u | <.A C C V V V V V V V V ",
"V V V V V V V V V L 1. .q > > > : : : : : : : : > = = = * * * * * @ @ @ + @ o @ @ o o o X X X o . o = r } 5.V V V V V V V V V V ",
"V V V V V V V V Z <.| q : : > : : : : : : : : : : : = = = * * * * @ * @ @ + @ o o o o o o X X . X . o = X.} 0.V V V V V V V V V ",
"V V V V V V V C 8.[ i > : > > : : : : : : : : : : = ; = * * * * * @ @ @ @ o o @ @ o o o X o X . . . . + - ` _ I V V V V V V V V ",
"V V V V V V C P _ ` : : : : : : : : : : : : : : : = = = * = * * * * @ @ @ @ @ o o o o o o X o o X . . . @ 0  .,.Z V V V V V V V ",
"V V V V C C C 5.[ 0 > : > : : : : : : : : : : : = : = = = = * * @ * @ @ @ @ @ o o o o o o X X . X . . . . * i [ z C C V V V V V ",
"V V V V V C T  .i : : > : : : : : : : : : : : : : : : = = * * * * @ @ @ @ o @ o o @ o o o X X X . . . . . o - ) ,.N V C V V V V ",
"V V V V C C 2. .1 : : : > : > : : : : : : : : : : = = = ; * * * @ @ @ @ @ o @ o o o o o X X X X X . . . . . @ t | 0.V C V V V V ",
"V V V V V U  ...> : > : : : : : : : : : : : : : : = = = = = * * * @ * @ @ @ o @ @ o o o o o o . X . . . . . X - ( &.Z V V V V V ",
"V V V C C 6.[ 0 : : : : : : : : : : : : : > : : : ; = = = * * * * @ @ @ @ o o @ o o o o X X X X X . . .   .   * i [ l V C V V V ",
"V V V C Z 1.] > : : > : : : : : : : : : : : : > : : = = = * * * * * @ @ @ @ @ o @ o o o o o X X X . . . .     o 9 | *.V V V V V ",
"V V V V Y [ i > : : : : : : : : : : : : : : : : : : = = * * * * * @ @ @ @ @ @ o o o o o X X X X X . .     .   . : ` @.m C V V V ",
"V V C V 9.| q : : > : : : : : : : : : : : : : : : ; = = = = * * * @ @ @ @ @ o @ o @ o o o o X X X X . . . .     * y _ H V V V V ",
"V V V V 5.| - > > : : : : : : : : : : : : : : : : : = = * * * * * @ @ @ @ @ @ o o o o o X X X X . . . . .       + e } f V V V V ",
"V C C C 1.^ > : : : : : : : : : : : : : : : : : : = : = = = * * * @ * @ @ @ @ o o @ o o o X o . X X . . . .     X 9 } +.C C V V ",
"V V C A { ! > : : : : : : : : : 3 : : : : : : : ; = = = = * * * * @ @ @ o o @ o X o o o o X o . . . . . .       . - } +.C C C V ",
"V V C B  .y > : > : : : : : : : : : : : : : : : : = = = = * * * * @ @ @ @ @ o @ @ X o o X o X X X . . . .         - ( @.n C V V ",
"V V C P } y : > : : : : : : : : : : : : : : : : : : = = = * * * @ @ @ @ @ @ @ o X @ @ o o X X X X . . .   .       - ` @.b V C V ",
"V V V Y } y : : : : : : : : : : : : : : : : : : : = : = = * * * * * @ @ @ @ @ o @ o X o o X X X X X . . . .       - ` { M V V V ",
"V V V Y { y 6 6 > : : : : : : : : : : : : : : : : = = = = * * * @ * @ @ @ @ o @ + o o o o X X X . . . . .         ; ^ { b V V V ",
"V V V L } i 6 a 3 : : : : : : > : : : : : : : : : : ; = = = * * * @ * @ @ @ @ o + o o o o o o . X . . . .         : ^ &.b V V V ",
"V V C B } ..6 a 5 > : : : : : : : : : : : : : : : = = = = * * * * @ @ @ @ @ @ o + o o o X X X X . o . . .       . -  .>.b V V V ",
"V V C N { ! 6 a a 5 : : : : : : : : : : : : : : : = = = = * * * @ * @ @ @ @ o @ + o o o o X X X o . . . . .     . - | *.n V V V ",
"V V C n 1.] > a a a 5 > : : : : : : : : : : : : : : = = * * * * @ * @ @ @ @ @ o o o o o o X X X . . X . . .     X 1 | #.n V V V ",
"V V C C *.[ < 9 a p a 5 : : : : : : : : : : : : : = = = = = * * * @ @ @ @ o o @ + o o o o X X X X o O O O X X   o 8 | j V V V V ",
"V V C C 9.| 0 7 a p a a p : : : : : : : : : : : : : ; = * * * * * @ @ @ @ o @ o o + o o X o # # $ $ $ $ # # # # = ..Q d V C V V ",
"V V V V R } u 7 a a p a a a 6 : : : : : : : : : : = : = = = * * * @ @ @ @ @ @ @ + o o + # % % % $ % % $ # # # # : ` @.c C C V V ",
"V V V V m { ` > a a a a p p p 5 3 : : : : : : : : = ; = = * * * * @ @ @ @ + + + + + $ % % % % % % % $ $ $ # # $ 1 | #.n V V V V ",
"V V V C C 6.| 9 7 a p p p a a p 7 3 > > : : 3 : : = : = = * * * * @ * @ @ @ + + % 2 & 2 & % % % $ $ % $ $ # # = u [ h n V V V V ",
"V V V V C R [ y 6 a a p p p p p p p 7 3 : : : : = : ; = = * * * = @ @ @ @ @ % & 2 % & % % % % % % % % $ $ # # > ) ,.c V V V V V ",
"V V V V V C <. .- 7 a a p a a p p p p p p 3 3 : : : = = = * * * @ @ @ - 2 2 2 4 2 2 & & & % % % % $ $ $ $ # = w | O.n V V V V V ",
"V V V V V V T [ y > a a p p p p p a a a p p p p 4 4 2 : ; % & & > 3 4 4 & 4 & & 2 % & & % % % % % $ $ # # % - ` / v V C V V V V ",
"V V V V V V n <.| 1 7 a p p p a p a a a p p p a p p p 5 5 5 p 4 4 5 4 4 & 4 4 2 ; 2 & & & % % % $ % # % # = r | -.n V V C V V V ",
"V V V V V V V D Q ' > a p p p p p a a a p a p p p 5 p 5 p 5 5 4 4 4 4 4 4 4 & 2 & & & & & & % % $ % % # $ 9 Q o.v C V V V V V V ",
"V V V V V V V C 7.{ r 7 p p p a p p a p p p p a p p p p 5 5 5 4 4 4 4 4 4 & 4 & 2 & & % % % % % % % $ % - ! Q g C C V V V V V V ",
"V V V V V V V V A 2.| q 6 a a a p p p p a p a p p p p 5 5 5 5 5 4 4 4 4 2 4 2 2 & & & & & & % % % % $ ; i [ ;.n C C V V V V V V ",
"V V V V V V V V V P / [ 9 6 a a a p a p p p p p p p p p p 5 4 4 4 4 4 2 4 2 2 2 2 & & % % % % % % $ - u [ $.c V C V V V V V V V ",
"V V V V V V V V V V D { ) 1 6 a a p a a a a p a p p 5 p 5 5 5 4 4 4 4 & 2 4 2 & & & & & & % % $ $ : u | :.S C V V C V V V V V V ",
"V V V V V V V V V V C D { ) q 6 a p a a p p p p 5 p p 5 5 p 4 5 4 4 4 4 4 2 2 2 & 2 & & & % % ; > r | :.s C V V V V V V V V V V ",
"V V V V V V V V V V V V P { [ t > 7 a a p a a p p p p 5 5 5 5 4 4 4 4 4 2 4 2 2 2 2 & % % % : > ..| :.s n V C V V V V V V V V V ",
"V V V V V V V V V V V V V D &.| ..1 6 a p p p a p p p 5 5 5 5 4 4 4 4 4 4 2 4 2 & % 2 & ; ; q ) [ $.v n V V V V V V V V V V V V ",
"V V V V V V V V V V V V V V B =.[  .t > 6 a a a p 5 p p 5 p 4 5 4 4 4 2 4 2 2 2 & & ; ; 1 y | Q ;.c V V V V V V V V V V V V V V ",
"V V V V V V V V V V V V V V V Z k ,.| ` e - > 7 5 p p 5 5 5 5 4 4 4 4 4 2 2 2 2 : > 1 y  .{ o.l n V V V V V V V V V V V V V V V ",
"V V V V V V V V V V V V V V C V V c 3._ } ( y 0 > : 6 5 5 5 4 2 4 4 4 3 2 < : - w X. .{ ,.-.c n V V V V V V V V V V V V V V V V ",
"V V V V V V V V V V V V V V V V C V C J 3.,.[ | ) ..r w - : > = > : - 1 w i !  .}  .$.-.v n V V V V V V V V V V V V V V V V V V ",
"V V V V V V V V V V V V V V V V C V V V V N z #.1.[ } } [ | ) ^ ] ( | | } } _ @.+.l Z V V V V V V V V V V V V V V V V V V V V V ",
"V V V V V V V V V V V V V V V V V V V V V V V C N G f +.*.@.~ o.~ o.%.%.3.j F b C V V V V V V V V V V V V V V V V V V V V V V V ",
"V V V V V V V V V V V V V V V V V V V V C V V V V V V V n n n b m m n n C V V C V V V V V V V V V V V V V V V V V V V V V V V V ",
"V V V V V V V V V V V V V V V V V V V V V V C V V V V V C V V V C V C C V C V V V V V V V V V V V V V V V V V V V V V V V V V V ",
"V V V V V V V V V V V V V V V V V V V V V V V V C V V V C V V V C V V V V V C V V V V V V V V V V V V V V V V V V V V V V V V V ",
"V V V V V V V V V V V V V V V V V V V V V V V V V V V V V V V V V V C V V V V V V V V V V V V V V V V V V V V V V V V V V V V V "
};
