/* XPM */
static char *a2aa065db75745d1d1dcf786241bb308QTpUtGjykGjCBOlI[] = {
/* columns rows colors chars-per-pixel */
"64 64 161 2 ",
"   c #B9971D",
".  c #BD9A1E",
"X  c #B99728",
"o  c #BB9C37",
"O  c #BC9C3C",
"+  c #C19E1E",
"@  c #C5A11F",
"#  c #CAA41F",
"$  c #CEA81F",
"%  c #D0AA1F",
"&  c #C19F20",
"*  c #C7A521",
"=  c #CBA621",
"-  c #CEA921",
";  c #C2A22B",
":  c #D3AD21",
">  c #D5B124",
",  c #DBB423",
"<  c #DEBA26",
"1  c #DEBB29",
"2  c #C2A036",
"3  c #CCA834",
"4  c #C8A63D",
"5  c #D9B730",
"6  c #DFBF32",
"7  c #E1B723",
"8  c #E4BB24",
"9  c #E9BE24",
"0  c #E2BC2A",
"q  c #E6BF3A",
"w  c #E7C126",
"e  c #ECC225",
"r  c #E6C32A",
"t  c #EBC429",
"y  c #EDCA2B",
"u  c #F2C626",
"i  c #F6C926",
"p  c #F9CD27",
"a  c #F3CC29",
"s  c #FCCE28",
"d  c #F5D22D",
"f  c #FED42B",
"g  c #FED92E",
"h  c #EDCA33",
"j  c #E7C43C",
"k  c #EFCE3A",
"l  c #F2CF36",
"z  c #F4D332",
"x  c #FAD732",
"c  c #FEDA33",
"v  c #FFDD3A",
"b  c #CFB045",
"n  c #D3B54F",
"m  c #C1A55A",
"M  c #D3B253",
"N  c #D9B85B",
"B  c #C4AA62",
"V  c #CCB46D",
"C  c #D0B562",
"Z  c #C7AF70",
"A  c #CCB67B",
"S  c #DFC14A",
"D  c #E7C044",
"F  c #E8C440",
"G  c #E9C749",
"H  c #EBC849",
"J  c #FEDD45",
"K  c #F2D34E",
"L  c #FEDE4A",
"P  c #E8C357",
"I  c #F3D557",
"U  c #FFE04C",
"Y  c #FEE052",
"T  c #E4C46E",
"R  c #E7CE6F",
"E  c #FCDF63",
"W  c #F3D76B",
"Q  c #E7C875",
"!  c #E6C779",
"~  c #EBD179",
"^  c #F2D771",
"/  c #F0D679",
"(  c #FDE262",
")  c #FEE56B",
"_  c #FFE674",
"`  c #FDE47A",
"'  c #FEE879",
"]  c #1734DF",
"[  c #969695",
"{  c #A6A6A4",
"}  c #ADACA5",
"|  c #CEB981",
" . c #D0BC89",
".. c #CFBF96",
"X. c #DDC681",
"o. c #D6C396",
"O. c #D3C39B",
"+. c #DECB9D",
"@. c #E1C782",
"#. c #EFD98C",
"$. c #F3DA84",
"%. c #F1D98E",
"&. c #E2CB91",
"*. c #EDD995",
"=. c #EEDA9B",
"-. c #FBE685",
";. c #FEE986",
":. c #FEEC9E",
">. c #D7C7A1",
",. c #D7CBAD",
"<. c #DCCFAF",
"1. c #CAC4B1",
"2. c #D9CEB2",
"3. c #DBD0B6",
"4. c #EBD6A1",
"5. c #EBDAA5",
"6. c #E3D3AB",
"7. c #EDDDAD",
"8. c #E2D4B2",
"9. c #EDDEB2",
"0. c #E5D9B9",
"q. c #EBDDB9",
"w. c #EEE0AE",
"e. c #FCEBA2",
"r. c #F6E4AC",
"t. c #EDE0B4",
"y. c #ECE0B9",
"u. c #F4E5B3",
"i. c #F2E3BB",
"p. c #F7EABC",
"a. c #FFF2B3",
"s. c #FFF3BD",
"d. c #D6D3CA",
"f. c #D4D4D1",
"g. c #DAD9D1",
"h. c #E4DAC4",
"j. c #E9DEC2",
"k. c #E2DBC8",
"l. c #EEE4C4",
"z. c #ECE4CC",
"x. c #F7EBC3",
"c. c #FEF4C2",
"v. c #FFF4C5",
"b. c #EBE4D7",
"n. c #E4E1D9",
"m. c #EAE6DD",
"M. c #EDE9DD",
"N. c #F4EBD5",
"B. c #F1ECDD",
"V. c #FEF5D2",
"C. c #F9F3DC",
"Z. c #FEF8DE",
"A. c #EEEBE3",
"S. c #F1EEE2",
"D. c #F3F0E5",
"F. c #F9F4E1",
"G. c #F3F0E8",
"H. c #FEFAE8",
"J. c #FEFCF1",
"K. c #FEFDF7",
"L. c #FEFEF8",
/* pixels */
"] ] ] ] ] ] ] ] ] ] ] ] ] ] ] ] ] ] ] ] ] ] ] ] ] ] ] ] ] ] ] ] ] ] ] ] ] ] ] ] ] ] ] ] ] ] ] ] ] ] ] ] ] ] ] ] ] ] ] ] ] ] ] ] ",
"] ] ] ] ] ] ] ] ] ] ] ] ] ] ] ] ] ] ] ] ] ] ] ] ] ] ] ] ] ] ] ] ] ] ] ] ] ] ] ] ] ] ] ] ] ] ] ] ] ] ] ] ] ] ] ] ] ] ] ] ] ] ] ] ",
"] ] ] ] ] ] ] ] ] ] ] ] ] ] ] ] ] ] ] ] ] ] ] ] ] } 1.y.5.*.#.$.#.#.*.5.t.n.A.] ] ] ] ] ] ] ] ] ] ] ] ] ] ] ] ] ] ] ] ] ] ] ] ] ",
"] ] ] ] ] ] ] ] ] ] ] ] ] ] ] ] ] ] ] ] ] ] F.u./ k y z d d d d y d y y y y j ~ t.C.] ] ] ] ] ] ] ] ] ] ] ] ] ] ] ] ] ] ] ] ] ] ",
"] ] ] ] ] ] ] ] ] ] ] ] ] ] ] ] ] ] ] G.s.^ z d z x x x x g x x g d d d z d d y r r R y.A.] ] ] ] ] ] ] ] ] ] ] ] ] ] ] ] ] ] ] ",
"] ] ] ] ] ] ] ] ] ] ] ] ] ] ] ] ] ] u.K z d d x g g x g x x g g g x g g x d d d d d y y S w.] ] ] ] ] ] ] ] ] ] ] ] ] ] ] ] ] ] ",
"] ] ] ] ] ] ] ] ] ] ] ] ] ] ] ] x.I d d x x g c x g g g g g g g g g g g x g x g d d d y y r G p.] ] ] ] ] ] ] ] ] ] ] ] ] ] ] ] ",
"] ] ] ] ] ] ] ] ] ] ] ] [ ] B.$.z x x U Y U U v x g g g g g g g g g g g g g g g x g g d d z w w #.M.] [ ] ] ] ] ] ] ] ] ] ] ] ] ",
"] ] ] ] ] ] ] ] ] ] ] ] [ l.K z v Y ;.;.) U v c g g c g g g g g g g g g g g g g g g g g d d d y r S y.[ ] ] ] ] ] ] ] ] ] ] ] ] ",
"] ] ] ] ] ] ] ] ] ] ] ] w.z d L e.Z.a._ U v c g c g g g g g g g g g g g g g g g g g g g g f d d y r 6 6.] ] ] ] ] ] ] ] ] ] ] ] ",
"] ] ] ] ] ] ] ] ] ] ] r.z x ( V.K.s.) U v g g g g g c c g g g g g g g g g g g g g g g g f g f d d y r 1 w.] ] ] ] ] ] ] ] ] ] ] ",
"] ] ] ] ] ] ] ] ] ] r.x x ` H.L.s._ U v c g g c g g g g g g g g g g g g g g g g g g g g g f g d g d y r < 5.] ] ] ] ] ] ] ] ] ] ",
"] ] ] ] ] ] ] [ ] 7.z x -.J.L.v._ U c c g g c g g c g c g g g g g g g g g c g g g g g d g g g g g g d y r < 6.] ] ] ] ] ] ] ] ] ",
"] ] ] ] ] ] ] ] l.z x ` J.L.v._ U v c g g g g g g g g g g g g g g g g g g g g g g g g g g g f g f d f a y r 5 h.{ ] ] ] ] ] ] ] ",
"] ] ] ] ] ] ] B.K d E H.L.c._ J v g c g g g g g g g g g g g g g g g g g g g g g g g g g g g g g g f f d d r 1 S M.] ] ] ] ] ] ] ",
"] ] ] ] ] ] ] $.d J V.L.s._ J c g g g g g g g g g g g g g g g g g g g g g g g g g g g g g f f f f g f f d y 1 > ! ] ] ] ] ] ] ] ",
"] ] ] ] ] ] v.d c :.J.s._ U v g g g g g g g g c g g g g g g g g g g g f g g f g g g g g g f f g f g g f f a t < > l.] ] ] ] ] ] ",
"] ] ] ] ] ] I x Y v.a.) U c g g g g c g g g g g g g g g g g g f g g g g f g g g f f f f f f g f g f g f f d a w > n ] ] ] ] ] ] ",
"] ] ] ] ] u.d x ' :.) U g g g g g g g g g g g g g g g g g g f g g g g g g g f g g f f g g f g f f g f f f a i t < > 6.] ] ] ] ] ",
"] ] ] ] D.K d J ' ( U c g g g g g g g g g g g g g g g f g g g g g g g g g f g f f g g f f g f g g f g f f f f t w > b A.] ] ] ] ",
"] ] ] ] p.d x L Y U v c g g g g g g g g g g g g f g g g g f g g g g g f g f f g f g f g f g f f f g f f f f f a r < > 0.] ] ] ] ",
"] ] ] ] W g x J U v g g g g g g g g g g g g g g g g g g g g g g g f f f f g g f g f f f g f f g f f f f f f f a t 1 - C ] ] ] ] ",
"] ] ] Z.d d v J v g g g g g g g g g g g g g g g g g g g g g g f g f f f g f f g f g g f f g f f f f f g f f f a t 8 > * B.] ] ] ",
"] ] ] u.d g c c c g g g g g g c g g g g g g g g g g g g f g g f f g f g f g f f g f f g g f f g f f f f f f f i u w > * 6.] ] ] ",
"] ] ] ^ d g c c g g g g g g g g g g g g g g f g g g g g g f g g g f g f f g f f f g f f f f f f f f f f f f f f a w > = V ] ] ] ",
"] ] A.l d g g g g g g g g g g g g g g g g g g g f g g f g f f f g f f g g f f g g f f g f g f g f f g f f f f p i w , = ; A.] ] ",
"] ] z.d f c g g g g g g g g g g g g g g f g g g g f f f g f g f f g f f g f g f f f f f f g f f f f f f f f f p a w , - & k.] ] ",
"] ] 9.d d g g g g g g g g g g d g g g g g g g f f g f g f g f f g f f g f g f f f g f f f f f f f f f p f f f p a w , : & 2.[ ] ",
"] ] =.d g c g g g g g g g g g f g g g g g g f g g f g f f g f g f f f g f f f g f f f f f s f f f f f f f s f f i t < $ & O.] ] ",
"] ] %.d g g g g g g g g g f g g g g g f g f g f f g f g g f g f g g f f g f f f f f f f f f f f f f f f f f s s a w , $ &  .] ] ",
"] ] $.d d g g c g g g g g g g f g g g g f f f g f g f f f f g g f f f g g f f f f f f f f f f f f f f f f f f s u t < $ & | ] ] ",
"] ] $.d g g g f g g g g g f g g g g f f f g g f g f g f g f f f g f f f f f f g f f f f f f f f f f f f f f s p i w > $ & A ] ] ",
"] ] ^ d d g g g g g g g g g g f g f g f g f g f g f g f g f g f f f f f f f f f f f f f f f f p f f f f f p f p p 9 , % + V ] ] ",
"] ] -.d f f g g f g f g g g f g f g f f f g f f f g f f f f f f g f f f f f f f f f f p f f f f f f f p f p p p u 9 % # . V ] ] ",
"] ] #.d d g f g g g g g g f g f g f f g f g f g f g f g f f f f f f g f f f f f f f f f f p f f p f f f f f p p u 8 % #   X.] ] ",
"] ] / d d f g f f g f f g f f g g f g f g f g f f f f f g f f f f f f f f f f f f f f f f f f f f f f p f f p p u 7 % #   O.] ] ",
"] ] t.y d g g f g f g f f g f f f g f g g f f f f f f f f f f f f f f f f f f f f f f f f p f p f f f f p f p p w < % &   ,.] ] ",
"] ] l.y p g g f f g f g g f g f g f f f f f f g g f f g f f f f f p f f f f f f f f f p f f f f f p f p f p p u w > * &   g.] ] ",
"] ] M.h p g g f f g f g g f f g f g f f f f f f f f f f f f f f f f f f f f f f f f f p f p f f f f p f p p p u w : * + X m.] ] ",
"] ] ] R p f f f g f g f f g f f f f f g f g f f f g f f f f f f f f f f f f f f p f f f f f p f p f f p f p p u 7 % &   B ] ] ] ",
"] ] ] w.y d g g g f f f f g f g f g f g f f g f f f f f f f f f f p f f f f f f f f f p f p f f f s p f p p u 9 , % .   +.] ] ] ",
"] ] ] C.y d d d f g g f f f f g f f f f f f f f f f f f f f f p f f f f p f p f p f f f f f f p p p f p s p u 8 : # .   N.] ] ] ",
"] ] ] ] I a d f f f g g f f g f f f f g f f f f f f f f p f f f p f f p f p f f f f f p f p f p s s f f p u e , % @   m ] ] ] ] ",
"] ] ] ] w.y p f g g p f f f f f f g f f f f f f f f f p f f f f f f f f f p f p p f p f p f p f f s f p p u 8 , $ .   <.] ] ] ] ",
"] ] ] ] S.F a d f f f g f f f f f f f f f f f f f f f f f f f p f p f f f p f f f p f p p f f p s s s p u e 7 $ *   o M.] ] ] ] ",
"] ] ] ] ] w.y p p f f f f f f f f f f f f f f f f p f f f f f f p f p f f f p f p f p f f p p f s s s p u 8 > $ .   >.] ] ] ] ] ",
"] ] ] ] ] d.H a p f f f f g f f f f f f f f f f f f f f p f f f f f f f f f p f f p f p p f p p p p p u w 7 % @ . O g.] ] ] ] ] ",
"] ] ] ] ] ] u.t p p f f f f f f f f f f f f f f f f p f f p p f f p p f p p f p p f p f f p f p s p i e 8 > # &   3.] ] ] ] ] ] ",
"] ] ] ] ] ] ] ~ y i p f f f f f f f f s f f f f p p f f p f f f f s s f p f f p p f s s s s s s p p u 9 , $ + + Z ] ] ] ] ] ] ] ",
"] ] ] ] ] ] ] M.j u a f d f f f f s f f f f f f f f p f f f f p s f s s f p p f f s s s s s s p p u 9 7 : + + 2 n.] ] ] ] ] ] ] ",
"] ] ] ] ] ] [ ] y.t y a p f s f f f f f s s f f f s f f p f f p s s s s p f f p p f s s s s p p i 9 7 % # + X 8.] ] ] ] ] ] ] ] ",
"] ] ] ] ] ] ] ] f.5.t u a p f s f f s f f f f p f f s s f p f f s s s p f p p f p p s s s s p i e 7 , $ & & ..] ] ] ] ] ] ] ] ] ",
"] ] ] ] ] ] ] ] ] f.=.e u a s s s f s f f f f f s f f s s f p p s s s f f p f s f s s p s p u 9 8 % % + + ..[ ] ] ] ] ] ] ] ] ] ",
"] ] ] ] ] ] ] ] ] ] ] =.t t a p p f f s s s s f f s s s s s f p s f f p p s p s p p s p p 9 9 9 7 % + + o.] ] ] ] ] ] ] ] ] ] ] ",
"] ] ] ] ] ] ] ] ] ] ] f.4.0 u a a p p s s f s s s s s s f f p f f s p s s f f p p p p i 9 9 7 , % # + ..d.] ] ] ] ] ] ] ] ] ] ] ",
"] ] ] ] ] ] ] ] ] ] ] ] { q.j e u a p p s p s s s f s s p p f p s s s s s p p p p i u u 9 7 , $ + ; 8.[ ] ] ] ] ] ] ] ] ] ] ] ] ",
"] ] ] ] ] ] ] ] ] ] ] ] ] ] N.Q 9 9 i i i p s s s s s s s s s s s p p p p p p i 9 i 9 9 7 : # @ Z n.[ ] ] ] ] ] ] ] ] ] ] ] ] ] ",
"] ] ] ] ] ] ] ] ] ] ] ] ] ] ] ] i.D 9 u u i i i p s i s s p s p p p p p p p i u 9 9 9 7 : $ 4 8.] ] ] ] ] ] ] ] ] ] ] ] ] ] ] ] ",
"] ] ] ] ] ] ] ] ] ] ] ] ] ] ] ] ] B.4.q 9 9 u i u i u i i i a i p i i i u u 9 9 7 7 : $ 3 +.b.] ] ] ] ] ] ] ] ] ] ] ] ] ] ] ] ] ",
"] ] ] ] ] ] ] ] ] ] ] ] ] ] ] ] ] ] ] S.9.P 0 9 9 e u u u u u u i u e 9 9 9 7 7 , : M 6.M.] ] ] ] ] ] ] ] ] ] ] ] ] ] ] ] ] ] ] ",
"] ] ] ] ] ] ] ] ] ] ] ] ] ] ] ] ] ] ] ] ] ] C.4.P 0 8 9 9 9 9 9 9 8 8 7 7 , % N &.N.] ] ] ] ] ] ] ] ] ] ] ] ] ] ] ] ] ] ] ] ] ] ",
"] ] ] ] ] ] ] ] ] ] ] ] ] ] ] ] ] ] ] ] ] ] ] ] ] M.j.6.&.! ! T T Q @.&.&.q.b.] ] ] ] ] ] ] ] ] ] ] ] ] ] ] ] ] ] ] ] ] ] ] ] ] ",
"] ] ] ] ] ] ] ] ] ] ] ] ] ] ] ] ] ] ] ] ] ] ] ] ] [ ] ] ] ] ] ] ] ] ] ] ] ] [ ] ] ] ] ] ] ] ] ] ] ] ] ] ] ] ] ] ] ] ] ] ] ] ] ] ",
"] ] ] ] ] ] ] ] ] ] ] ] ] ] ] ] ] ] ] ] ] ] ] ] ] ] ] ] ] ] ] ] ] ] ] ] ] ] ] ] ] ] ] ] ] ] ] ] ] ] ] ] ] ] ] ] ] ] ] ] ] ] ] ] "
};
